<svg xmlns="http://www.w3.org/2000/svg" x="0px" y="0px"
	 viewBox="0 0 49.7 49.7" style="enable-background:new 0 0 49.7 49.7;" xml:space="preserve">
<path d="M24.8,0C11.1,0,0,11.1,0,24.8c0,13.7,11.1,24.8,24.8,24.8s24.8-11.1,24.8-24.8C49.6,11.1,38.5,0,24.8,0z M38.3,35.9
	c-0.2,0.4-0.6,0.8-1,1.1c-1.5,1.3-3.5,2-5.2,2c-1.2,0-2.4-0.3-3.5-0.8c-1.7-0.6-3.5-1.2-5-2.2c-2.1-1.3-3.9-2.8-5.6-4.5
	c-1.6-1.6-3-3.3-4.2-5.2c-0.4-0.6-0.8-1.3-1.1-2c-0.6-1.5-1.2-3-1.7-4.5c-0.8-2.4-0.4-4.7,0.9-6.8c0.9-1.5,2.1-2.2,3.7-2.4
	c0.2,0,0.4,0,0.7-0.1c0.6-0.1,1,0.1,1.3,0.7c0.7,1.3,1.5,2.7,2.2,4c0.3,0.5,0.6,1,0.9,1.5c0.3,0.6,0.3,1-0.1,1.4
	c-0.4,0.5-1,0.9-1.4,1.4c-0.5,0.4-1,0.9-1.5,1.3c-0.4,0.4-0.5,0.8-0.2,1.3c0.6,1.1,1.2,2.2,1.9,3.2c1.7,2.5,3.9,4.5,6.6,6
	c0.5,0.3,1,0.6,1.4,0.8c0.5,0.3,1,0.2,1.5-0.3c0.5-0.5,0.9-1.1,1.4-1.6c0.4-0.4,0.8-0.9,1.2-1.3c0.5-0.5,0.9-0.5,1.5-0.1
	c1.5,0.9,2.9,1.7,4.4,2.6c0.4,0.2,0.9,0.5,1.3,0.7c0.3,0.2,0.4,0.5,0.4,0.8C39,34.1,38.8,35,38.3,35.9z"/>
</svg>
