<svg xmlns="http://www.w3.org/2000/svg"  x="0px" y="0px" viewBox="0 0 49.7 49.7" style="enable-background:new 0 0 49.7 49.7;" >
<path d="M24.8,0C11.1,0,0,11.1,0,24.8c0,13.7,11.1,24.8,24.8,24.8c13.7,0,24.8-11.1,24.8-24.8C49.7,11.1,38.5,0,24.8,0z M19.1,11
	c0.1-0.8,1.1-1.5,1.9-1.6c0.3,0,0.5-0.1,0.8-0.1c1.9,0,3.9,0,5.8,0c0.3,0,0.6,0.1,0.9,0.1c1.1,0.1,2,1,2,2.1c0,0.8,0,1.6,0,2.4
	c-0.8,0-1.5,0-2.2,0c0-0.8,0-1.5,0-2.3c-2.3,0-4.6,0-7,0c0,0.8,0,1.5,0,2.3c-0.8,0-1.5,0-2.2,0C19.1,12.9,19,12,19.1,11z M35.1,37.2
	c-0.6,0-1.2,0-1.8,0.1c-5.6,0-11.2,0-16.8,0c-0.8,0-1.5-0.1-2.3-0.1c-1.2-0.1-2.1-1-2.1-2.2c0-3,0-6,0-9.1c0-0.5,0-1,0-1.6
	c3.4,1.1,6.7,2.3,10,3.4c0.1,0,0.3,0.3,0.3,0.4c0.2,1.3,1.1,2.2,2.3,2.2c1.1,0,2.1-0.8,2.3-2.1c0.1-0.4,0.2-0.5,0.6-0.7
	c1.6-0.5,3.1-1,4.6-1.5c1.7-0.6,3.4-1.1,5.2-1.7c0,0.3,0,0.6,0,0.9c0,3.2-0.1,6.4,0,9.6C37.6,36.2,36.3,37.3,35.1,37.2z M23.7,24.5
	c0.8,0,1.5,0,2.2,0c0,1.2,0,2.4,0,3.5c0,0.6-0.5,1-1.1,1c-0.6,0-1.1-0.4-1.1-0.9C23.7,26.9,23.7,25.7,23.7,24.5z M38.7,21.2
	c0,0.9-0.3,1.6-1.3,1.9c-2.6,0.8-5.2,1.7-7.8,2.6c-0.8,0.3-1.6,0.5-2.5,0.8c0-1.1,0-2.2,0-3.2c-1.6,0-3.1,0-4.7,0c0,1.1,0,2.1,0,3.2
	c-0.2,0-0.3,0-0.4-0.1c-3.4-1.1-6.8-2.3-10.1-3.4c-0.5-0.2-0.9-0.5-1-1c0-1.6,0-3.2,0-4.8c0.5-1.6,1.4-2,2.7-1.9c2.9,0,5.8,0,8.8,0
	c4.6,0,9.2,0,13.8,0c1.2,0,2,0.5,2.3,1.5c0.1,0.3,0.1,0.6,0.2,0.9C38.7,18.8,38.7,20,38.7,21.2z"/>
</svg>
