<svg xmlns="http://www.w3.org/2000/svg" xmlns:xlink="http://www.w3.org/1999/xlink" version="1.1" id="Layer_1" x="0px" y="0px" viewBox="0 0 549.4 328.2" enable-background="new 0 0 549.4 328.2" xml:space="preserve">
<path fill="#1D1D1B" d="M182.5,2.6v201.3h-18.5V39.5L97.8,168.1h-13L18.5,39.8v164.1H0V2.6h19.3l72.1,139l72.1-139H182.5z   M378.4,206.8L344.9,171c-12.1,19-28.6,32.9-55.7,32.9c-34.9,0-60.6-24.2-60.6-53.9c0-24.8,15.3-40.1,44.7-56.8  c-16.7-16.7-26-30.6-26-47c0-23.9,20.2-43,44.7-43c26,0,45.3,19,45.3,43c0,23.1-18.2,38.6-36.3,50.5l41.5,45.3l24.5-39.8l14.7,9.2  l-27.1,44.1l37.2,39.5L378.4,206.8z M284.9,105.8c-26.2,14.4-37.8,26-37.8,43.8c0,20.5,18.5,37.5,42.1,37.5  c21.3,0,32.3-9.8,44.1-28.8L284.9,105.8z M265.6,46.1c0,11.2,7.5,20.8,23.9,38.4c19.3-11.3,30-23.1,30-38.4  c0-15-10.1-26.8-27.4-26.8C276,19.3,265.6,32,265.6,46.1 M547.9,45.6l-16.7,6.1C524.6,30.6,505.8,17,480.4,17  c-27.7,0-45.8,13.8-45.8,37.2c0,50.2,114.8,23.6,114.8,94.3c0,33.7-27.1,57.4-67.5,57.4c-37.5,0-60-17.9-75.5-46.4l15.6-9.5  c10.4,21.9,29.4,38.9,58.3,38.9c33.4,0,50.8-15.3,50.8-40.7c0-50.5-114.8-25.7-114.8-94.3c0-40.7,36.6-53.9,63.7-53.9  C510.4,0,538.1,13.8,547.9,45.6"/>
<polygon fill="#1D1D1B" points="132.2,308.8 151.8,308.8 151.8,303.6 132.2,303.6 132.2,290.6 153.2,290.6 153.2,285.3 126.7,285.3   126.7,327.4 154.4,327.4 154.4,322.2 132.2,322.2 "/>
<path fill="#1D1D1B" d="M182.6,303.4l-0.2-0.1c-6-1.7-9.3-2.9-9.3-6.8c0-3.9,3.3-6.4,8.4-6.4c4.2,0,7.4,1.7,8.8,4.9l0.6,1.3l4.5-2.6  l-0.4-1c-3-7.2-10.9-7.7-13.3-7.7c-5.2,0-13.9,2.5-13.9,11.7c0,8.1,7.2,10.2,13.6,12.1c6.3,1.8,9.8,3.1,9.8,7.2  c0,4.3-3.7,7.1-9.5,7.1c-5.3,0-9.2-2.3-11.3-6.7l-0.6-1.3l-4.6,2.7l0.5,1.1c3,6,8.6,9.4,15.8,9.4c8.8,0,15-5.2,15-12.6  C196.4,307.4,188.8,305.2,182.6,303.4"/>
<polygon fill="#1D1D1B" points="206,290.6 218.8,290.6 218.8,327.4 224.3,327.4 224.3,290.6 237.1,290.6 237.1,285.3 206,285.3 "/>
<path fill="#1D1D1B" d="M251.5,320.9c-1.9,0-3.6,1.6-3.6,3.5c0,1.9,1.6,3.6,3.6,3.6c1.9,0,3.6-1.6,3.6-3.6  C255,322.5,253.4,320.9,251.5,320.9"/>
<polygon fill="#1D1D1B" points="282.9,292.3 289.2,292.3 289.2,327.4 294.7,327.4 294.7,287 283,287 "/>
<path fill="#1D1D1B" d="M415.8,287h-3.1l-19.7,27.3v3.7h20.5v9.5h5.3v-9.5h5.2v-4.6l-5.2-0.5V287h-2.8 M400.4,312.7l13.2-18.2v18.2  H400.4z"/>
<path fill="#1D1D1B" d="M332.7,306.1c3.5-1.9,5.6-4.8,5.6-8.9c0-7.3-5.9-10.9-13-10.9c-7.2,0-13,3.7-13,10.9c0,4.1,2,7,5.5,8.9  c-3.7,1.7-6.8,4.8-6.8,9.5c0,7.2,5.2,12.1,14.3,12.1c9.1,0,14.3-5.1,14.3-12.1C339.5,310.9,336.4,307.9,332.7,306.1 M317.3,297.5  c0-4.3,2.8-6.8,8-6.8c5.1,0,8,2.5,8,6.8c0,4.3-4,6.5-8,6.5C320.9,304,317.3,301.5,317.3,297.5 M325.2,323.4c-5.1,0-9-2.5-9-7.7  c0-4.9,4.3-7.3,9-7.3c4.7,0,9,2.4,9,7.3C334.2,320.9,330.3,323.4,325.2,323.4"/>
<path fill="#1D1D1B" d="M372.9,306.1c3.5-1.9,5.6-4.8,5.6-8.9c0-7.3-5.9-10.9-13-10.9c-7.2,0-13,3.7-13,10.9c0,4.1,2,7,5.5,8.9  c-3.7,1.7-6.8,4.8-6.8,9.5c0,7.2,5.2,12.1,14.3,12.1c9.1,0,14.3-5.1,14.3-12.1C379.7,310.9,376.7,307.9,372.9,306.1 M357.5,297.5  c0-4.3,2.9-6.8,8-6.8c5.1,0,8,2.5,8,6.8c0,4.3-4,6.5-8,6.5C361.1,304,357.5,301.5,357.5,297.5 M365.4,323.4c-5.1,0-9-2.5-9-7.7  c0-4.9,4.3-7.3,9-7.3c4.7,0,9,2.4,9,7.3C374.5,320.9,370.5,323.4,365.4,323.4"/>
</svg>