<svg id="svg" version="1.1" xmlns="http://www.w3.org/2000/svg" xmlns:xlink="http://www.w3.org/1999/xlink" width="400" height="400" viewBox="0, 0, 400,400"><g id="svgg"><path id="path0" d="M88.200 93.200 C 87.760 93.389,86.798 93.556,86.062 93.572 C 85.326 93.587,84.246 93.848,83.662 94.151 C 83.078 94.454,82.105 94.904,81.500 95.151 C 80.895 95.398,79.905 95.818,79.300 96.084 C 76.666 97.244,70.400 104.699,70.400 106.673 C 70.400 106.969,70.227 107.523,70.016 107.905 C 68.633 110.408,68.624 111.000,68.624 199.400 C 68.624 287.800,68.633 288.392,70.016 290.895 C 70.227 291.277,70.400 291.916,70.400 292.315 C 70.400 293.213,71.293 295.193,71.700 295.197 C 71.865 295.199,72.000 295.430,72.000 295.711 C 72.000 295.992,72.495 296.681,73.100 297.241 C 73.705 297.802,75.049 299.178,76.086 300.299 C 77.124 301.420,78.339 302.454,78.786 302.596 C 79.234 302.738,79.600 303.022,79.600 303.227 C 79.600 303.432,80.050 303.600,80.600 303.600 C 81.150 303.600,81.600 303.780,81.600 304.000 C 81.600 304.220,82.014 304.400,82.520 304.400 C 83.026 304.400,83.611 304.555,83.820 304.744 C 85.126 305.925,92.235 306.001,202.000 306.001 C 311.765 306.001,318.874 305.925,320.180 304.744 C 320.389 304.555,320.974 304.400,321.480 304.400 C 321.986 304.400,322.400 304.220,322.400 304.000 C 322.400 303.780,322.682 303.600,323.027 303.600 C 323.371 303.600,324.243 303.150,324.964 302.600 C 325.686 302.050,326.426 301.600,326.610 301.600 C 327.136 301.600,330.745 297.520,331.297 296.300 C 331.571 295.695,331.912 295.200,332.054 295.200 C 332.197 295.200,332.426 294.750,332.564 294.200 C 332.702 293.650,332.992 293.200,333.208 293.200 C 333.423 293.200,333.600 292.755,333.600 292.212 C 333.600 291.669,333.960 290.583,334.400 289.800 C 335.310 288.179,335.705 110.760,334.800 110.200 C 334.580 110.064,334.400 109.603,334.400 109.176 C 334.400 108.749,334.220 108.400,334.000 108.400 C 333.780 108.400,333.600 107.871,333.600 107.224 C 333.600 106.577,333.420 105.936,333.199 105.799 C 332.978 105.663,332.453 104.797,332.031 103.876 C 331.609 102.954,330.710 101.671,330.032 101.025 C 329.354 100.379,328.800 99.556,328.800 99.196 C 328.800 98.503,327.771 97.845,322.586 95.225 C 320.364 94.101,318.859 93.600,317.710 93.600 C 316.795 93.600,315.936 93.420,315.800 93.200 C 315.490 92.698,89.368 92.698,88.200 93.200 M316.353 111.647 L 318.000 113.294 318.000 199.285 C 318.000 296.244,318.328 286.343,315.046 288.372 L 313.706 289.200 202.037 289.200 C 76.268 289.200,88.445 289.509,86.440 286.265 L 85.600 284.906 85.600 199.469 C 85.600 119.632,85.645 113.946,86.284 112.704 C 87.742 109.872,77.167 110.114,202.053 110.054 L 314.706 110.000 316.353 111.647 M126.000 128.800 C 125.670 129.013,124.995 129.191,124.500 129.194 C 124.005 129.197,123.600 129.380,123.600 129.600 C 123.600 129.820,123.184 130.000,122.676 130.000 C 122.169 130.000,121.404 130.264,120.976 130.587 C 120.549 130.910,119.885 131.180,119.500 131.187 C 119.115 131.194,118.800 131.380,118.800 131.600 C 118.800 131.820,118.526 132.000,118.192 132.000 C 115.804 132.000,106.800 141.341,106.800 143.819 C 106.800 144.145,106.644 144.723,106.454 145.105 C 105.273 147.473,105.020 149.013,104.893 154.588 C 104.758 160.592,104.902 161.517,106.441 164.495 C 106.638 164.877,106.800 165.642,106.800 166.195 C 106.800 166.748,106.980 167.200,107.200 167.200 C 107.420 167.200,107.600 167.455,107.600 167.766 C 107.600 168.433,108.812 169.959,110.900 171.921 C 111.725 172.697,112.400 173.563,112.400 173.845 C 112.400 174.424,114.827 176.400,115.538 176.400 C 115.792 176.400,116.000 176.539,116.000 176.709 C 116.000 177.184,119.579 178.867,122.000 179.531 C 122.770 179.742,124.324 180.204,125.454 180.557 C 128.145 181.400,134.275 181.426,135.854 180.602 C 136.484 180.274,137.484 180.004,138.076 180.002 C 138.668 180.001,139.264 179.820,139.400 179.600 C 139.536 179.380,140.177 179.200,140.824 179.200 C 141.471 179.200,142.000 179.020,142.000 178.800 C 142.000 178.580,142.270 178.400,142.599 178.400 C 142.929 178.400,144.054 177.797,145.099 177.061 C 146.145 176.325,147.305 175.614,147.677 175.482 C 148.049 175.351,148.676 174.738,149.070 174.121 C 149.464 173.505,150.371 172.370,151.085 171.600 C 151.799 170.830,152.589 169.705,152.840 169.100 C 153.092 168.495,153.455 168.000,153.649 168.000 C 153.842 168.000,154.000 167.675,154.000 167.278 C 154.000 166.880,154.450 165.945,155.000 165.200 C 155.550 164.455,156.000 163.466,156.000 163.002 C 156.000 162.539,156.203 161.957,156.451 161.709 C 156.749 161.411,156.903 159.062,156.903 154.800 C 156.903 150.538,156.749 148.189,156.451 147.891 C 156.203 147.643,156.000 147.037,156.000 146.544 C 156.000 146.051,155.825 145.539,155.611 145.407 C 155.397 145.274,154.915 144.499,154.541 143.683 C 154.168 142.867,153.263 141.366,152.531 140.346 C 151.799 139.327,151.200 138.377,151.200 138.236 C 151.200 137.658,148.521 135.093,146.659 133.888 C 144.846 132.716,144.024 132.252,140.738 130.550 C 140.154 130.248,139.305 130.000,138.850 130.000 C 138.396 130.000,137.383 129.640,136.600 129.200 C 135.029 128.317,127.204 128.022,126.000 128.800 M241.308 151.500 C 240.940 152.465,238.370 155.200,237.832 155.200 C 237.245 155.200,234.001 158.369,233.997 158.946 C 233.993 159.513,230.682 162.800,230.114 162.800 C 229.516 162.800,226.400 165.902,226.398 166.500 C 226.397 167.094,223.022 170.400,222.418 170.400 C 221.853 170.400,218.800 173.576,218.800 174.165 C 218.800 174.702,216.346 177.035,214.590 178.167 C 213.343 178.971,211.601 180.792,211.600 181.293 C 211.600 181.780,208.171 185.200,207.683 185.200 C 207.157 185.200,204.000 188.387,204.000 188.918 C 204.000 189.491,200.693 192.800,200.120 192.800 C 199.521 192.800,196.400 195.898,196.400 196.492 C 196.400 196.989,193.377 199.871,191.463 201.200 C 190.670 201.750,190.017 202.471,190.011 202.803 C 189.999 203.487,185.953 207.600,185.293 207.600 C 184.742 207.600,182.400 209.927,182.400 210.474 C 182.400 211.061,178.188 215.200,177.590 215.200 C 177.083 215.200,175.201 217.163,175.200 217.693 C 175.199 218.353,171.681 221.600,170.969 221.598 C 170.497 221.597,166.124 217.503,159.647 210.998 C 153.843 205.169,148.848 200.400,148.547 200.400 C 148.247 200.400,138.281 210.133,126.401 222.029 L 104.800 243.658 104.800 257.229 L 104.800 270.800 202.200 270.800 L 299.600 270.800 299.600 239.475 L 299.600 208.150 298.478 207.075 C 297.861 206.484,297.184 206.000,296.974 206.000 C 296.764 206.000,296.054 205.344,295.396 204.543 C 293.258 201.939,289.887 198.400,289.544 198.400 C 289.018 198.400,287.600 197.070,287.600 196.577 C 287.600 196.093,282.844 191.471,281.084 190.244 C 280.488 189.828,279.999 189.288,279.998 189.044 C 279.996 188.481,275.094 183.600,274.531 183.600 C 274.301 183.600,273.772 183.120,273.356 182.534 C 272.050 180.692,267.774 176.361,266.766 175.858 C 266.234 175.593,265.582 174.922,265.316 174.367 C 264.818 173.329,260.609 169.190,258.682 167.844 C 258.087 167.428,257.600 166.873,257.600 166.610 C 257.600 166.347,256.295 164.918,254.700 163.436 C 251.090 160.080,251.002 159.992,247.949 156.684 C 246.571 155.190,244.985 153.749,244.425 153.480 C 243.865 153.212,243.171 152.499,242.882 151.896 C 242.279 150.638,241.693 150.490,241.308 151.500 " stroke="none" fill="#bcbcc4" fill-rule="evenodd"></path><path id="path1" d="M0.000 200.000 L 0.000 400.000 200.000 400.000 L 400.000 400.000 400.000 200.000 L 400.000 0.000 200.000 0.000 L 0.000 0.000 0.000 200.000 M317.260 92.700 C 317.535 92.975,318.446 93.200,319.285 93.200 C 320.664 93.200,321.242 93.385,323.200 94.451 C 323.530 94.631,324.385 95.073,325.100 95.435 C 325.815 95.796,326.400 96.251,326.400 96.446 C 326.400 96.641,326.720 96.800,327.111 96.800 C 327.789 96.800,329.196 98.081,329.203 98.705 C 329.205 98.867,329.806 99.631,330.537 100.403 C 332.275 102.236,334.000 104.989,334.000 105.931 C 334.000 106.784,335.066 109.070,335.625 109.416 C 336.335 109.854,336.111 289.583,335.400 289.855 C 335.070 289.982,334.800 290.426,334.800 290.843 C 334.800 291.259,334.620 291.600,334.400 291.600 C 334.180 291.600,334.000 292.052,334.000 292.605 C 334.000 293.624,333.412 294.921,332.500 295.913 C 332.225 296.212,332.000 296.639,332.000 296.862 C 332.000 297.085,331.370 297.879,330.600 298.626 C 329.830 299.374,329.200 300.193,329.200 300.446 C 329.200 301.045,327.632 302.400,326.939 302.400 C 326.642 302.400,326.400 302.580,326.400 302.800 C 326.400 303.020,326.040 303.200,325.600 303.200 C 325.160 303.200,324.800 303.380,324.800 303.600 C 324.800 303.820,324.552 304.000,324.249 304.000 C 323.946 304.000,323.474 304.270,323.200 304.600 C 322.926 304.930,322.274 305.200,321.751 305.200 C 321.228 305.200,320.800 305.380,320.800 305.600 C 320.800 305.820,319.900 306.000,318.800 306.000 C 317.700 306.000,316.800 306.180,316.800 306.400 C 316.800 306.666,278.275 306.800,202.024 306.800 C 125.937 306.800,87.164 306.665,87.000 306.400 C 86.864 306.180,86.054 306.000,85.200 306.000 C 84.346 306.000,83.536 305.820,83.400 305.600 C 83.264 305.380,82.825 305.200,82.425 305.200 C 82.025 305.200,81.474 304.930,81.200 304.600 C 80.926 304.270,80.287 304.000,79.780 304.000 C 79.272 304.000,78.189 303.370,77.373 302.600 C 76.556 301.830,75.776 301.200,75.639 301.200 C 75.502 301.200,75.032 300.721,74.595 300.136 C 74.158 299.550,73.221 298.473,72.513 297.741 C 71.805 297.010,70.853 295.554,70.399 294.506 C 69.944 293.458,69.398 292.287,69.186 291.905 C 68.974 291.523,68.800 290.679,68.800 290.029 C 68.800 289.379,68.620 288.736,68.400 288.600 C 67.846 288.258,67.846 110.942,68.400 110.600 C 68.620 110.464,68.800 109.744,68.800 109.000 C 68.800 108.256,68.960 107.549,69.155 107.428 C 69.350 107.307,69.628 106.577,69.773 105.804 C 69.918 105.032,70.208 104.400,70.418 104.400 C 70.628 104.400,70.800 104.065,70.800 103.655 C 70.800 102.944,72.596 100.800,73.192 100.800 C 73.347 100.800,73.797 100.200,74.192 99.466 C 74.588 98.732,75.425 97.787,76.054 97.366 C 76.683 96.945,77.198 96.465,77.199 96.300 C 77.199 96.135,77.470 96.000,77.800 96.000 C 78.130 96.000,78.400 95.820,78.400 95.600 C 78.400 95.380,78.598 95.200,78.840 95.200 C 79.269 95.200,81.507 94.298,82.895 93.566 C 83.277 93.365,84.096 93.200,84.715 93.200 C 85.334 93.200,86.011 93.034,86.220 92.831 C 86.429 92.628,87.140 92.384,87.800 92.289 C 91.107 91.813,316.778 92.218,317.260 92.700 M89.800 111.200 C 89.664 111.420,89.269 111.600,88.923 111.600 C 88.577 111.600,87.867 112.095,87.347 112.700 L 86.401 113.800 86.400 199.305 C 86.400 266.971,86.504 284.996,86.900 285.697 C 87.567 286.879,88.446 287.572,89.300 287.587 C 89.685 287.594,90.000 287.780,90.000 288.000 C 90.000 288.555,313.457 288.555,313.800 288.000 C 313.936 287.780,314.319 287.600,314.652 287.600 C 315.486 287.600,316.309 286.700,316.625 285.445 C 316.770 284.866,317.049 284.294,317.244 284.173 C 317.450 284.045,317.600 248.477,317.600 199.790 C 317.600 106.787,317.797 114.032,315.201 111.700 L 314.200 110.801 202.124 110.800 C 127.837 110.800,89.964 110.935,89.800 111.200 M137.541 128.605 C 138.498 129.152,139.803 129.600,140.441 129.600 C 141.078 129.600,141.600 129.780,141.600 130.000 C 141.600 130.220,141.938 130.400,142.351 130.400 C 142.764 130.400,143.326 130.670,143.600 131.000 C 143.874 131.330,144.346 131.600,144.649 131.600 C 144.952 131.600,145.200 131.780,145.200 132.000 C 145.200 132.220,145.425 132.400,145.700 132.400 C 146.384 132.401,150.800 135.906,150.800 136.448 C 150.800 136.688,151.250 137.239,151.800 137.671 C 152.350 138.104,152.800 138.642,152.800 138.867 C 152.800 139.092,153.134 139.754,153.543 140.338 C 154.928 142.318,156.400 145.225,156.400 145.981 C 156.400 146.395,156.592 146.797,156.828 146.876 C 158.381 147.394,158.385 161.375,156.833 162.927 C 156.595 163.165,156.400 163.864,156.400 164.480 C 156.400 165.096,156.247 165.600,156.061 165.600 C 155.874 165.600,155.397 166.320,155.000 167.200 C 154.603 168.080,154.126 168.800,153.939 168.800 C 153.753 168.800,153.600 169.094,153.600 169.453 C 153.600 169.812,153.276 170.397,152.879 170.753 C 152.483 171.109,151.635 172.120,150.995 173.000 C 149.488 175.070,148.548 176.000,147.963 176.000 C 147.704 176.000,147.075 176.450,146.565 177.000 C 146.055 177.550,145.360 178.000,145.019 178.000 C 144.679 178.000,144.400 178.180,144.400 178.400 C 144.400 178.620,144.175 178.802,143.900 178.804 C 143.625 178.806,142.500 179.250,141.400 179.791 C 140.300 180.332,138.815 180.781,138.100 180.787 C 137.385 180.794,136.800 180.980,136.800 181.200 C 136.800 181.420,136.271 181.600,135.624 181.600 C 134.977 181.600,134.336 181.780,134.200 182.000 C 134.064 182.220,132.534 182.400,130.800 182.400 C 129.066 182.400,127.536 182.220,127.400 182.000 C 127.264 181.780,126.533 181.600,125.776 181.600 C 125.019 181.600,124.400 181.420,124.400 181.200 C 124.400 180.980,123.870 180.800,123.221 180.800 C 122.573 180.800,121.196 180.350,120.162 179.800 C 119.127 179.250,117.982 178.800,117.616 178.800 C 117.250 178.800,116.602 178.484,116.175 178.097 C 115.749 177.710,114.860 177.052,114.200 176.635 C 113.540 176.219,112.640 175.413,112.200 174.845 C 111.760 174.278,110.740 173.181,109.932 172.407 C 108.542 171.074,107.980 170.192,105.662 165.705 C 105.408 165.213,105.200 164.358,105.200 163.805 C 105.200 163.252,105.020 162.800,104.800 162.800 C 104.580 162.800,104.400 161.846,104.400 160.680 C 104.400 159.514,104.205 158.365,103.967 158.127 C 103.339 157.499,104.099 147.792,104.837 147.020 C 105.037 146.811,105.200 146.314,105.200 145.915 C 105.200 145.516,105.374 144.877,105.586 144.495 C 105.798 144.113,106.352 142.924,106.817 141.854 C 107.282 140.783,108.368 139.215,109.231 138.370 C 110.094 137.524,110.800 136.657,110.800 136.443 C 110.800 136.229,111.653 135.367,112.696 134.527 C 113.739 133.687,114.943 132.685,115.371 132.300 C 115.800 131.915,116.397 131.600,116.698 131.600 C 117.000 131.600,118.052 131.150,119.037 130.600 C 120.022 130.050,121.061 129.600,121.346 129.600 C 121.631 129.600,122.750 129.151,123.832 128.602 C 126.777 127.108,134.925 127.110,137.541 128.605 M243.123 151.065 C 243.196 151.574,243.773 152.184,244.523 152.544 C 246.105 153.304,250.800 158.053,250.800 158.892 C 250.800 159.231,251.385 159.794,252.100 160.142 C 253.601 160.874,257.954 165.279,258.777 166.900 C 259.084 167.505,259.613 168.000,259.952 168.000 C 260.291 168.000,261.785 169.305,263.272 170.900 C 266.602 174.473,266.727 174.598,270.300 177.928 C 271.895 179.415,273.200 180.909,273.200 181.248 C 273.200 181.587,273.695 182.119,274.300 182.429 C 275.724 183.159,280.441 187.876,281.171 189.300 C 281.481 189.905,282.003 190.400,282.331 190.400 C 283.013 190.400,288.400 195.679,288.400 196.348 C 288.400 196.591,289.075 197.228,289.900 197.764 C 291.682 198.922,294.413 201.775,295.157 203.256 C 295.449 203.837,296.163 204.555,296.744 204.853 C 297.325 205.151,298.385 205.930,299.100 206.585 L 300.400 207.776 300.400 239.445 C 300.400 267.954,300.337 271.139,299.767 271.357 C 298.943 271.674,105.681 271.664,104.500 271.348 L 103.600 271.107 103.600 257.518 L 103.600 243.929 105.400 242.179 C 106.390 241.217,107.200 240.229,107.200 239.984 C 107.200 239.418,109.399 237.200,109.961 237.200 C 110.494 237.200,114.800 232.919,114.800 232.388 C 114.800 231.832,116.992 229.600,117.538 229.600 C 118.124 229.600,122.000 225.747,122.000 225.165 C 122.000 224.586,124.586 222.000,125.165 222.000 C 125.747 222.000,129.600 218.124,129.600 217.538 C 129.600 216.992,131.832 214.800,132.388 214.800 C 132.919 214.800,137.200 210.494,137.200 209.961 C 137.200 209.410,139.413 207.200,139.964 207.200 C 140.478 207.200,144.400 203.358,144.400 202.856 C 144.400 202.660,144.998 201.848,145.728 201.050 C 147.624 198.981,149.110 199.046,151.101 201.286 C 151.925 202.213,153.751 204.058,155.158 205.386 C 156.565 206.714,158.185 208.323,158.758 208.963 C 159.331 209.602,160.567 210.862,161.504 211.763 C 163.065 213.262,164.740 214.947,168.930 219.232 C 170.134 220.463,170.602 220.713,171.130 220.405 C 171.498 220.190,187.460 204.276,206.600 185.040 C 241.708 149.757,242.793 148.748,243.123 151.065 " stroke="none" fill="transparent" fill-rule="evenodd"></path><path id="path2" d="M84.500 93.476 C 84.885 93.576,85.515 93.576,85.900 93.476 C 86.285 93.375,85.970 93.293,85.200 93.293 C 84.430 93.293,84.115 93.375,84.500 93.476 M318.798 93.497 C 319.568 93.589,320.468 93.876,320.798 94.133 C 321.322 94.540,321.329 94.510,320.851 93.900 C 320.486 93.435,319.815 93.221,318.851 93.264 L 317.400 93.328 318.798 93.497 M68.196 199.400 C 68.196 247.140,68.243 266.611,68.300 242.668 C 68.357 218.725,68.357 179.665,68.300 155.868 C 68.243 132.071,68.196 151.660,68.196 199.400 M317.796 199.400 C 317.796 246.040,317.843 265.061,317.900 241.668 C 317.957 218.275,317.957 180.115,317.900 156.868 C 317.843 133.621,317.796 152.760,317.796 199.400 M112.175 135.700 L 111.000 137.000 112.300 135.825 C 113.512 134.730,113.784 134.400,113.475 134.400 C 113.406 134.400,112.821 134.985,112.175 135.700 M239.152 153.300 C 238.135 154.345,237.422 155.200,237.568 155.200 C 237.925 155.200,241.397 151.646,241.175 151.508 C 241.079 151.449,240.168 152.255,239.152 153.300 M231.781 160.900 L 230.200 162.600 231.900 161.019 C 233.481 159.548,233.784 159.200,233.481 159.200 C 233.416 159.200,232.651 159.965,231.781 160.900 M106.299 166.099 C 106.569 167.178,107.600 168.774,107.600 168.113 C 107.600 167.857,107.420 167.536,107.200 167.400 C 106.980 167.264,106.800 166.814,106.800 166.400 C 106.800 165.986,106.637 165.546,106.437 165.423 C 106.238 165.300,106.176 165.604,106.299 166.099 M224.181 168.500 L 222.600 170.200 224.300 168.619 C 225.881 167.148,226.184 166.800,225.881 166.800 C 225.816 166.800,225.051 167.565,224.181 168.500 M216.515 176.010 C 215.589 176.885,214.967 177.600,215.134 177.600 C 215.301 177.600,216.141 176.880,217.000 176.000 C 219.010 173.941,218.700 173.948,216.515 176.010 M209.381 183.300 L 207.800 185.000 209.500 183.419 C 211.081 181.948,211.384 181.600,211.081 181.600 C 211.016 181.600,210.251 182.365,209.381 183.300 M201.781 190.900 L 200.200 192.600 201.900 191.019 C 203.481 189.548,203.784 189.200,203.481 189.200 C 203.416 189.200,202.651 189.965,201.781 190.900 M194.420 198.179 L 192.640 200.200 194.601 198.314 C 195.679 197.277,196.480 196.367,196.381 196.293 C 196.281 196.219,195.399 197.067,194.420 198.179 M145.978 201.500 L 144.600 203.000 146.100 201.622 C 146.925 200.863,147.600 200.188,147.600 200.122 C 147.600 199.816,147.262 200.104,145.978 201.500 M150.600 201.600 C 151.459 202.480,152.252 203.200,152.362 203.200 C 152.472 203.200,151.859 202.480,151.000 201.600 C 150.141 200.720,149.348 200.000,149.238 200.000 C 149.128 200.000,149.741 200.720,150.600 201.600 M292.000 200.125 C 292.000 200.194,292.585 200.779,293.300 201.425 L 294.600 202.600 293.425 201.300 C 292.330 200.088,292.000 199.816,292.000 200.125 M187.385 205.300 L 185.400 207.400 187.500 205.415 C 188.655 204.323,189.600 203.378,189.600 203.315 C 189.600 203.017,189.229 203.349,187.385 205.300 M294.400 203.325 C 294.400 203.394,294.985 203.979,295.700 204.625 L 297.000 205.800 295.825 204.500 C 294.730 203.288,294.400 203.016,294.400 203.325 M157.200 208.200 C 158.617 209.630,159.867 210.800,159.977 210.800 C 160.087 210.800,159.017 209.630,157.600 208.200 C 156.183 206.770,154.933 205.600,154.823 205.600 C 154.713 205.600,155.783 206.770,157.200 208.200 M138.575 208.900 L 137.400 210.200 138.700 209.025 C 139.912 207.930,140.184 207.600,139.875 207.600 C 139.806 207.600,139.221 208.185,138.575 208.900 M179.785 212.900 L 177.800 215.000 179.900 213.015 C 181.055 211.923,182.000 210.978,182.000 210.915 C 182.000 210.617,181.629 210.949,179.785 212.900 M164.600 215.600 C 165.906 216.920,167.065 218.000,167.175 218.000 C 167.285 218.000,166.306 216.920,165.000 215.600 C 163.694 214.280,162.535 213.200,162.425 213.200 C 162.315 213.200,163.294 214.280,164.600 215.600 M130.975 216.500 L 129.800 217.800 131.100 216.625 C 132.312 215.530,132.584 215.200,132.275 215.200 C 132.206 215.200,131.621 215.785,130.975 216.500 M123.606 223.794 C 122.863 224.561,122.332 225.237,122.427 225.298 C 122.522 225.358,123.256 224.731,124.059 223.904 C 124.861 223.077,125.391 222.400,125.237 222.400 C 125.083 222.400,124.349 223.027,123.606 223.794 M116.175 231.300 L 115.000 232.600 116.300 231.425 C 117.512 230.330,117.784 230.000,117.475 230.000 C 117.406 230.000,116.821 230.585,116.175 231.300 M108.575 238.900 L 107.400 240.200 108.700 239.025 C 109.912 237.930,110.184 237.600,109.875 237.600 C 109.806 237.600,109.221 238.185,108.575 238.900 M79.118 303.428 C 79.611 303.773,80.327 303.974,80.707 303.874 C 81.233 303.737,81.189 303.682,80.524 303.646 C 80.042 303.621,79.536 303.420,79.400 303.200 C 79.264 302.980,78.943 302.800,78.687 302.800 C 78.431 302.800,78.625 303.083,79.118 303.428 " stroke="none" fill="#d4d4d8" fill-rule="evenodd"></path><path id="path3" d="M145.700 92.700 C 176.665 92.757,227.335 92.757,258.300 92.700 C 289.265 92.643,263.930 92.597,202.000 92.597 C 140.070 92.597,114.735 92.643,145.700 92.700 M86.800 93.200 C 86.005 93.714,87.004 93.714,88.200 93.200 L 89.000 92.856 88.200 92.834 C 87.760 92.822,87.130 92.987,86.800 93.200 M315.800 93.200 C 315.936 93.420,316.442 93.587,316.924 93.572 C 317.769 93.545,317.771 93.531,317.000 93.200 C 315.899 92.727,315.508 92.727,315.800 93.200 M83.200 93.988 C 82.870 94.175,81.970 94.610,81.200 94.955 C 80.430 95.300,80.104 95.586,80.476 95.591 C 80.848 95.596,81.264 95.420,81.400 95.200 C 81.536 94.980,81.952 94.794,82.324 94.787 C 82.696 94.780,83.349 94.510,83.776 94.187 C 84.605 93.560,84.200 93.420,83.200 93.988 M323.032 95.398 C 324.114 95.947,325.090 96.392,325.200 96.386 C 325.667 96.361,322.148 94.404,321.632 94.402 C 321.320 94.401,321.950 94.849,323.032 95.398 M325.801 96.802 C 325.919 96.993,326.555 97.418,327.215 97.747 C 327.874 98.076,328.317 98.189,328.199 97.998 C 328.081 97.807,327.445 97.382,326.785 97.053 C 326.126 96.724,325.683 96.611,325.801 96.802 M75.448 98.800 C 74.634 99.680,74.110 100.397,74.284 100.393 C 74.596 100.386,77.393 97.200,77.087 97.200 C 77.000 97.200,76.262 97.920,75.448 98.800 M328.800 99.455 C 328.800 99.668,329.475 100.463,330.300 101.222 L 331.800 102.600 330.400 101.004 C 329.630 100.127,328.955 99.332,328.900 99.238 C 328.845 99.144,328.800 99.241,328.800 99.455 M331.600 102.872 C 331.600 103.306,332.869 105.596,333.235 105.822 C 333.447 105.952,333.236 105.371,332.767 104.530 C 331.867 102.915,331.600 102.536,331.600 102.872 M70.032 106.676 C 70.014 107.158,69.820 107.664,69.600 107.800 C 69.380 107.936,69.221 108.532,69.246 109.124 C 69.281 109.924,69.338 109.995,69.467 109.400 C 69.563 108.960,69.833 108.213,70.067 107.739 C 70.301 107.266,70.396 106.636,70.278 106.339 C 70.154 106.029,70.050 106.172,70.032 106.676 M334.416 109.276 C 334.407 109.648,334.580 110.064,334.800 110.200 C 335.064 110.363,335.234 140.678,335.299 199.524 L 335.398 288.600 335.500 199.677 C 335.589 122.282,335.526 110.615,335.017 109.677 C 334.616 108.938,334.427 108.812,334.416 109.276 M88.624 110.613 C 88.196 110.936,88.051 111.200,88.300 111.200 C 88.549 111.200,88.864 111.020,89.000 110.800 C 89.398 110.156,314.477 110.255,315.201 110.900 C 315.678 111.325,315.682 111.296,315.232 110.700 C 314.483 109.710,89.931 109.623,88.624 110.613 M317.057 112.800 C 317.308 113.130,317.602 113.760,317.711 114.200 C 317.897 114.960,317.910 114.957,317.954 114.149 C 317.979 113.681,317.685 113.051,317.300 112.749 C 316.691 112.272,316.660 112.278,317.057 112.800 M85.796 199.400 C 85.796 246.700,85.843 266.109,85.900 242.532 C 85.957 218.955,85.957 180.255,85.900 156.532 C 85.843 132.809,85.796 152.100,85.796 199.400 M125.400 128.652 C 124.457 129.113,124.414 129.177,125.200 128.953 C 125.750 128.796,128.270 128.551,130.800 128.409 L 135.400 128.150 131.000 128.107 C 127.871 128.077,126.253 128.235,125.400 128.652 M135.600 128.592 C 135.600 128.745,137.992 130.000,138.285 130.000 C 138.374 130.000,138.347 129.838,138.224 129.639 C 137.998 129.274,135.600 128.316,135.600 128.592 M120.000 130.633 C 119.442 130.943,119.265 131.185,119.600 131.181 C 119.930 131.178,120.549 130.910,120.976 130.587 C 121.939 129.859,121.345 129.887,120.000 130.633 M140.624 130.587 C 141.051 130.910,141.679 131.180,142.020 131.187 C 142.361 131.194,142.853 131.413,143.113 131.673 C 143.374 131.934,143.679 132.054,143.793 131.941 C 143.906 131.827,143.504 131.503,142.899 131.221 C 142.295 130.938,141.487 130.548,141.105 130.353 C 140.030 129.806,139.762 129.936,140.624 130.587 M115.800 132.737 C 115.140 133.140,114.330 133.813,114.000 134.231 C 113.602 134.735,113.820 134.656,114.646 133.996 C 115.332 133.448,116.232 132.786,116.646 132.524 C 117.061 132.261,117.310 132.037,117.200 132.025 C 117.090 132.013,116.460 132.333,115.800 132.737 M144.746 132.535 C 145.267 133.163,148.000 134.910,148.000 134.615 C 148.000 134.528,147.151 133.884,146.114 133.184 C 145.077 132.484,144.461 132.192,144.746 132.535 M110.209 137.991 C 109.131 139.086,108.327 140.039,108.424 140.108 C 108.521 140.178,109.482 139.282,110.560 138.118 C 113.039 135.440,112.805 135.356,110.209 137.991 M151.202 138.233 C 151.203 138.435,151.668 139.140,152.235 139.800 L 153.266 141.000 152.363 139.600 C 151.204 137.804,151.200 137.799,151.202 138.233 M154.000 142.472 C 154.000 142.906,155.269 145.196,155.635 145.422 C 155.847 145.552,155.636 144.971,155.167 144.130 C 154.267 142.515,154.000 142.136,154.000 142.472 M106.085 144.813 C 105.818 145.240,105.600 145.941,105.600 146.371 C 105.600 146.801,105.420 147.264,105.200 147.400 C 104.980 147.536,104.806 147.952,104.814 148.324 C 104.835 149.306,105.968 147.233,105.986 146.180 C 105.994 145.729,106.213 145.147,106.473 144.887 C 106.734 144.626,106.862 144.329,106.758 144.225 C 106.655 144.121,106.352 144.386,106.085 144.813 M156.959 154.800 C 156.958 160.348,157.007 160.896,157.266 158.238 C 157.435 156.499,157.435 153.529,157.266 151.638 C 156.997 148.623,156.960 149.012,156.959 154.800 M104.317 153.462 C 104.223 154.266,104.273 155.571,104.427 156.362 C 104.649 157.501,104.718 157.196,104.754 154.900 C 104.803 151.782,104.594 151.092,104.317 153.462 M238.975 154.100 L 237.800 155.400 239.100 154.225 C 239.815 153.579,240.400 152.994,240.400 152.925 C 240.400 152.616,240.070 152.888,238.975 154.100 M247.614 156.210 C 249.036 157.756,250.282 158.964,250.381 158.895 C 250.481 158.827,249.318 157.562,247.796 156.085 L 245.028 153.400 247.614 156.210 M234.080 158.080 C 233.816 158.344,233.600 158.735,233.600 158.949 C 233.600 159.162,233.285 159.708,232.900 160.162 C 232.251 160.927,232.250 160.948,232.892 160.451 C 233.463 160.009,234.948 157.600,234.649 157.600 C 234.600 157.600,234.344 157.816,234.080 158.080 M254.839 163.466 C 256.358 164.932,257.600 166.361,257.600 166.642 C 257.600 166.923,257.778 167.263,257.995 167.397 C 258.230 167.542,258.289 167.348,258.140 166.921 C 257.874 166.154,252.809 160.800,252.350 160.800 C 252.200 160.800,253.320 162.000,254.839 163.466 M105.646 163.424 C 105.621 163.876,105.864 164.596,106.187 165.024 C 106.510 165.451,106.780 165.611,106.787 165.380 C 106.794 165.149,106.637 164.789,106.439 164.580 C 106.240 164.371,105.991 163.840,105.885 163.400 C 105.697 162.620,105.692 162.620,105.646 163.424 M154.891 165.349 C 154.401 166.064,154.000 166.938,154.000 167.291 C 154.000 167.644,153.816 168.025,153.590 168.137 C 153.364 168.249,153.400 168.297,153.668 168.244 C 153.937 168.191,154.291 167.645,154.455 167.031 C 154.619 166.417,155.063 165.572,155.441 165.155 C 155.819 164.737,156.050 164.317,155.955 164.222 C 155.860 164.127,155.381 164.634,154.891 165.349 M226.032 166.369 C 226.014 166.681,225.692 167.311,225.315 167.769 C 224.669 168.553,224.683 168.551,225.562 167.742 C 226.075 167.270,226.397 166.640,226.279 166.342 C 226.104 165.903,226.057 165.908,226.032 166.369 M259.644 168.500 C 259.741 168.555,261.076 169.770,262.610 171.200 L 265.400 173.800 262.812 171.100 C 261.388 169.615,260.053 168.400,259.845 168.400 C 259.637 168.400,259.546 168.445,259.644 168.500 M108.631 169.800 C 109.330 171.011,112.400 174.110,112.400 173.604 C 112.400 173.454,111.725 172.717,110.900 171.966 C 110.075 171.215,109.071 170.150,108.670 169.600 C 107.947 168.611,107.947 168.614,108.631 169.800 M265.200 174.352 C 265.200 174.742,266.755 176.198,266.923 175.964 C 266.987 175.874,266.626 175.401,266.120 174.914 C 265.614 174.427,265.200 174.174,265.200 174.352 M145.611 176.620 C 144.847 177.159,144.397 177.599,144.611 177.598 C 144.825 177.597,145.540 177.153,146.200 176.612 C 147.741 175.349,147.405 175.353,145.611 176.620 M268.156 176.678 C 269.538 178.345,272.800 181.575,272.800 181.276 C 272.800 181.112,271.591 179.812,270.114 178.388 C 268.637 176.965,267.756 176.195,268.156 176.678 M119.469 178.803 C 119.727 179.135,120.807 179.639,121.869 179.922 C 122.931 180.206,124.421 180.603,125.180 180.806 C 125.938 181.008,126.631 181.102,126.719 181.015 C 126.806 180.927,126.095 180.649,125.139 180.396 C 121.071 179.321,120.168 179.033,119.600 178.628 C 119.104 178.274,119.081 178.305,119.469 178.803 M139.400 179.600 C 139.264 179.820,138.578 180.025,137.876 180.054 C 136.838 180.099,136.779 180.143,137.560 180.290 C 138.088 180.390,138.898 180.285,139.360 180.056 C 139.822 179.828,140.560 179.563,141.000 179.467 C 141.595 179.338,141.524 179.281,140.724 179.246 C 140.132 179.221,139.536 179.380,139.400 179.600 M129.100 181.623 C 130.035 181.807,131.565 181.807,132.500 181.623 C 133.957 181.336,133.715 181.288,130.800 181.288 C 127.885 181.288,127.643 181.336,129.100 181.623 M273.823 183.237 C 273.946 183.437,274.288 183.600,274.582 183.600 C 274.876 183.600,275.646 184.185,276.292 184.900 C 276.939 185.615,278.082 186.737,278.834 187.393 C 279.585 188.049,279.049 187.389,277.643 185.925 C 275.507 183.702,273.035 181.963,273.823 183.237 M204.111 188.100 C 203.657 188.686,203.154 190.000,203.383 190.000 C 203.470 190.000,203.811 189.460,204.140 188.800 C 204.770 187.537,204.759 187.263,204.111 188.100 M201.762 191.247 C 201.343 191.713,200.640 192.242,200.200 192.422 C 199.634 192.654,199.583 192.757,200.025 192.775 C 200.369 192.789,201.168 192.260,201.800 191.600 C 202.432 190.940,202.854 190.400,202.737 190.400 C 202.620 190.400,202.181 190.781,201.762 191.247 M282.044 190.900 C 282.141 190.955,283.476 192.170,285.010 193.600 L 287.800 196.200 285.212 193.500 C 283.788 192.015,282.453 190.800,282.245 190.800 C 282.037 190.800,281.946 190.845,282.044 190.900 M292.017 200.615 C 293.217 201.943,294.282 202.971,294.381 202.900 C 294.481 202.829,293.498 201.743,292.198 200.486 L 289.833 198.200 292.017 200.615 M144.228 203.900 L 140.730 207.800 144.265 204.098 C 147.792 200.404,148.541 199.955,149.601 200.900 C 150.078 201.325,150.082 201.296,149.632 200.700 C 148.667 199.425,147.760 199.963,144.228 203.900 M191.170 201.100 L 190.200 202.200 191.400 201.200 C 192.060 200.650,192.675 200.155,192.767 200.100 C 192.858 200.045,192.755 200.000,192.536 200.000 C 192.318 200.000,191.703 200.495,191.170 201.100 M153.200 204.600 C 154.395 205.810,155.463 206.800,155.573 206.800 C 155.683 206.800,154.795 205.810,153.600 204.600 C 152.405 203.390,151.337 202.400,151.227 202.400 C 151.117 202.400,152.005 203.390,153.200 204.600 M189.632 202.778 C 189.614 203.096,189.109 203.906,188.509 204.578 L 187.418 205.800 188.757 204.544 C 189.500 203.848,190.000 203.046,189.880 202.744 C 189.705 202.306,189.657 202.313,189.632 202.778 M296.223 205.637 C 296.346 205.837,296.673 206.000,296.949 206.000 C 297.225 206.000,297.934 206.505,298.525 207.122 L 299.600 208.244 299.600 239.521 L 299.600 270.798 202.500 270.900 L 105.400 271.002 202.600 271.001 L 299.800 271.000 299.902 239.622 L 300.005 208.243 298.758 206.957 C 297.620 205.782,295.693 204.779,296.223 205.637 M138.778 209.100 L 137.400 210.600 138.900 209.222 C 140.296 207.938,140.584 207.600,140.278 207.600 C 140.212 207.600,139.537 208.275,138.778 209.100 M161.200 212.600 C 162.617 214.030,163.867 215.200,163.977 215.200 C 164.087 215.200,163.017 214.030,161.600 212.600 C 160.183 211.170,158.933 210.000,158.823 210.000 C 158.713 210.000,159.783 211.170,161.200 212.600 M135.186 213.100 L 133.000 215.400 135.300 213.214 C 137.437 211.182,137.783 210.800,137.486 210.800 C 137.424 210.800,136.389 211.835,135.186 213.100 M131.178 216.700 L 129.800 218.200 131.300 216.822 C 132.696 215.538,132.984 215.200,132.678 215.200 C 132.612 215.200,131.937 215.875,131.178 216.700 M167.600 219.000 C 169.017 220.430,170.267 221.600,170.377 221.600 C 170.487 221.600,169.417 220.430,168.000 219.000 C 166.583 217.570,165.333 216.400,165.223 216.400 C 165.113 216.400,166.183 217.570,167.600 219.000 M127.586 220.700 L 125.400 223.000 127.700 220.814 C 129.837 218.782,130.183 218.400,129.886 218.400 C 129.824 218.400,128.789 219.435,127.586 220.700 M172.914 219.880 C 172.427 220.386,172.174 220.800,172.352 220.800 C 172.742 220.800,174.198 219.245,173.964 219.077 C 173.874 219.013,173.401 219.374,172.914 219.880 M123.775 224.100 L 122.600 225.400 123.900 224.225 C 125.112 223.130,125.384 222.800,125.075 222.800 C 125.006 222.800,124.421 223.385,123.775 224.100 M120.386 227.900 L 118.200 230.200 120.500 228.014 C 122.637 225.982,122.983 225.600,122.686 225.600 C 122.624 225.600,121.589 226.635,120.386 227.900 M116.378 231.500 L 115.000 233.000 116.500 231.622 C 117.896 230.338,118.184 230.000,117.878 230.000 C 117.812 230.000,117.137 230.675,116.378 231.500 M112.786 235.500 L 110.600 237.800 112.900 235.614 C 115.037 233.582,115.383 233.200,115.086 233.200 C 115.024 233.200,113.989 234.235,112.786 235.500 M108.778 239.100 L 107.400 240.600 108.900 239.222 C 110.296 237.938,110.584 237.600,110.278 237.600 C 110.212 237.600,109.537 238.275,108.778 239.100 M105.978 242.300 L 104.600 243.800 106.100 242.422 C 107.496 241.138,107.784 240.800,107.478 240.800 C 107.412 240.800,106.737 241.475,105.978 242.300 M104.267 244.267 C 103.819 244.715,103.950 270.800,104.400 270.800 C 104.659 270.800,104.800 266.067,104.800 257.400 C 104.800 250.030,104.740 244.000,104.667 244.000 C 104.593 244.000,104.413 244.120,104.267 244.267 M317.600 284.662 C 317.600 285.026,317.137 285.971,316.571 286.762 L 315.542 288.200 316.771 286.815 C 317.830 285.622,318.423 284.000,317.800 284.000 C 317.690 284.000,317.600 284.298,317.600 284.662 M68.412 286.400 C 68.412 286.730,68.587 287.270,68.800 287.600 C 69.145 288.133,69.188 288.133,69.188 287.600 C 69.188 287.270,69.013 286.730,68.800 286.400 C 68.455 285.867,68.412 285.867,68.412 286.400 M69.246 289.676 C 69.221 290.268,69.380 290.864,69.600 291.000 C 69.820 291.136,70.021 291.732,70.046 292.324 C 70.080 293.093,70.148 293.185,70.286 292.647 C 70.392 292.234,70.290 291.514,70.060 291.047 C 69.830 290.581,69.563 289.840,69.467 289.400 C 69.338 288.805,69.281 288.876,69.246 289.676 M145.900 289.100 C 176.755 289.157,227.245 289.157,258.100 289.100 C 288.955 289.043,263.710 288.997,202.000 288.997 C 140.290 288.997,115.045 289.043,145.900 289.100 M332.564 294.200 C 332.426 294.750,332.153 295.200,331.957 295.200 C 331.760 295.200,331.600 295.391,331.600 295.624 C 331.600 296.317,332.307 295.669,332.944 294.392 C 333.271 293.736,333.376 293.200,333.177 293.200 C 332.978 293.200,332.702 293.650,332.564 294.200 M74.834 299.447 C 75.365 300.133,75.880 300.623,75.979 300.535 C 76.077 300.447,75.643 299.886,75.013 299.288 L 73.869 298.200 74.834 299.447 M327.829 300.629 C 327.405 300.938,327.136 301.269,327.230 301.363 C 327.324 301.457,327.748 301.281,328.171 300.971 C 328.595 300.662,328.864 300.331,328.770 300.237 C 328.676 300.143,328.252 300.319,327.829 300.629 M81.363 304.090 C 81.420 304.370,81.811 304.654,82.233 304.721 C 82.655 304.787,83.376 305.027,83.835 305.253 C 84.294 305.480,85.194 305.588,85.835 305.493 C 86.868 305.339,86.833 305.313,85.524 305.260 C 84.712 305.227,83.936 305.020,83.800 304.800 C 83.664 304.580,83.128 304.400,82.610 304.400 C 82.091 304.400,81.575 304.216,81.463 303.990 C 81.352 303.764,81.306 303.810,81.363 304.090 M320.200 304.800 C 320.064 305.020,319.288 305.227,318.476 305.260 C 317.167 305.313,317.132 305.339,318.165 305.493 C 318.806 305.588,319.706 305.484,320.165 305.262 C 320.624 305.040,321.270 304.770,321.600 304.661 C 321.979 304.536,321.877 304.452,321.324 304.432 C 320.842 304.414,320.336 304.580,320.200 304.800 M88.476 306.060 C 88.984 306.203,140.070 306.320,202.000 306.320 C 263.930 306.320,315.016 306.203,315.524 306.060 C 316.032 305.917,264.946 305.800,202.000 305.800 C 139.054 305.800,87.968 305.917,88.476 306.060 " stroke="none" fill="#ccd4d4" fill-rule="evenodd"></path><path id="path4" d="M145.300 92.300 C 176.485 92.357,227.515 92.357,258.700 92.300 C 289.885 92.243,264.370 92.197,202.000 92.197 C 139.630 92.197,114.115 92.243,145.300 92.300 M86.200 92.800 C 85.908 93.273,86.299 93.273,87.400 92.800 C 88.171 92.469,88.169 92.455,87.324 92.428 C 86.842 92.413,86.336 92.580,86.200 92.800 M82.800 93.588 C 82.470 93.775,81.570 94.210,80.800 94.555 C 80.030 94.900,79.704 95.186,80.076 95.191 C 80.448 95.196,80.864 95.020,81.000 94.800 C 81.136 94.580,81.552 94.394,81.924 94.387 C 82.296 94.380,82.949 94.110,83.376 93.787 C 84.205 93.160,83.800 93.020,82.800 93.588 M320.800 93.800 C 321.074 94.130,321.625 94.400,322.025 94.400 C 322.425 94.400,322.864 94.580,323.000 94.800 C 323.136 95.020,323.439 95.200,323.673 95.200 C 323.941 95.200,323.914 94.978,323.600 94.600 C 323.326 94.270,322.775 94.000,322.375 94.000 C 321.975 94.000,321.536 93.820,321.400 93.600 C 321.264 93.380,320.961 93.200,320.727 93.200 C 320.459 93.200,320.486 93.422,320.800 93.800 M325.400 96.188 C 326.060 96.729,326.900 97.178,327.267 97.186 C 327.633 97.194,328.025 97.385,328.137 97.610 C 328.249 97.836,328.294 97.791,328.237 97.510 C 328.180 97.230,327.806 96.937,327.406 96.859 C 327.006 96.781,326.312 96.376,325.864 95.959 C 325.416 95.542,324.858 95.201,324.625 95.202 C 324.391 95.203,324.740 95.647,325.400 96.188 M76.916 96.582 C 76.649 96.885,76.106 97.373,75.709 97.666 C 75.311 97.960,74.662 98.740,74.266 99.400 L 73.546 100.600 74.673 99.357 C 75.293 98.673,76.338 97.638,76.996 97.057 C 77.654 96.476,78.014 96.007,77.796 96.015 C 77.578 96.024,77.182 96.278,76.916 96.582 M329.635 99.787 C 329.946 100.220,330.560 100.996,331.000 101.511 C 332.187 102.900,333.600 105.521,333.600 106.334 C 333.600 107.124,334.767 108.883,334.787 108.124 C 334.794 107.862,334.620 107.536,334.400 107.400 C 334.180 107.264,334.000 106.710,334.000 106.168 C 334.000 104.973,332.367 102.307,330.469 100.403 C 329.700 99.631,329.324 99.354,329.635 99.787 M71.855 101.855 C 71.275 102.435,70.805 103.200,70.812 103.555 C 70.822 104.060,70.920 104.027,71.267 103.400 C 71.510 102.960,72.076 102.195,72.524 101.700 C 73.657 100.450,73.140 100.569,71.855 101.855 M69.632 106.276 C 69.614 106.758,69.420 107.264,69.200 107.400 C 68.980 107.536,68.825 108.222,68.854 108.924 C 68.900 109.984,68.936 110.030,69.071 109.200 C 69.160 108.650,69.427 107.813,69.663 107.339 C 69.900 106.866,69.996 106.236,69.878 105.939 C 69.754 105.629,69.650 105.772,69.632 106.276 M334.800 109.127 C 334.800 109.361,334.980 109.664,335.200 109.800 C 335.844 110.198,335.745 288.887,335.100 289.570 C 334.696 289.998,334.716 290.065,335.200 289.917 C 336.114 289.637,336.314 109.959,335.401 109.201 C 335.022 108.887,334.800 108.859,334.800 109.127 M68.267 110.667 C 68.120 110.813,68.015 111.398,68.034 111.967 C 68.068 112.981,68.075 112.979,68.421 111.820 C 68.785 110.603,68.731 110.202,68.267 110.667 M88.500 111.124 C 87.248 111.721,86.770 112.400,87.600 112.400 C 87.820 112.400,88.000 112.220,88.000 112.000 C 88.000 111.780,88.349 111.600,88.776 111.600 C 89.203 111.600,89.664 111.420,89.800 111.200 C 89.964 110.935,127.837 110.800,202.124 110.800 L 314.200 110.801 315.203 111.700 C 315.754 112.195,316.507 113.230,316.877 114.000 C 317.416 115.123,317.554 115.229,317.574 114.534 C 317.588 114.057,316.915 112.933,316.077 112.034 L 314.553 110.400 202.177 110.452 C 101.556 110.499,89.664 110.569,88.500 111.124 M86.480 113.280 C 85.687 114.073,85.793 284.773,86.587 285.824 C 86.910 286.251,87.180 286.386,87.187 286.124 C 87.194 285.862,87.020 285.536,86.800 285.400 C 86.174 285.013,86.253 113.907,86.880 113.280 C 87.144 113.016,87.270 112.800,87.160 112.800 C 87.050 112.800,86.744 113.016,86.480 113.280 M124.842 128.034 C 124.315 128.245,123.975 128.508,124.086 128.620 C 124.198 128.731,124.776 128.637,125.371 128.411 C 126.647 127.926,135.668 127.854,136.220 128.324 C 136.740 128.768,138.800 129.626,138.800 129.400 C 138.800 127.926,127.802 126.850,124.842 128.034 M119.102 130.504 C 118.279 130.963,117.697 131.430,117.809 131.542 C 117.921 131.655,118.226 131.534,118.487 131.273 C 118.747 131.013,119.284 130.800,119.680 130.800 C 120.076 130.800,120.400 130.633,120.400 130.428 C 120.400 130.223,120.805 129.978,121.300 129.882 C 122.050 129.738,122.066 129.706,121.400 129.690 C 120.960 129.679,119.926 130.046,119.102 130.504 M140.161 129.887 C 140.579 129.995,141.530 130.424,142.273 130.841 C 143.903 131.756,144.264 131.799,143.600 131.000 C 143.326 130.670,142.764 130.400,142.351 130.400 C 141.938 130.400,141.600 130.220,141.600 130.000 C 141.600 129.780,141.105 129.621,140.500 129.646 C 139.716 129.679,139.618 129.749,140.161 129.887 M115.371 132.300 C 114.943 132.685,113.739 133.687,112.696 134.527 C 111.653 135.367,110.800 136.312,110.800 136.627 C 110.800 136.942,110.590 137.200,110.333 137.200 C 110.077 137.200,109.968 137.301,110.091 137.425 C 110.215 137.548,111.280 136.688,112.458 135.514 C 113.636 134.339,115.140 132.983,115.800 132.501 C 116.460 132.020,116.809 131.620,116.575 131.613 C 116.342 131.606,115.800 131.915,115.371 132.300 M144.951 132.054 C 145.002 132.315,145.663 132.859,146.421 133.264 C 147.180 133.669,148.475 134.654,149.300 135.452 C 150.125 136.250,150.800 136.703,150.800 136.458 C 150.800 135.924,146.400 132.401,145.733 132.400 C 145.477 132.400,145.175 132.215,145.063 131.990 C 144.951 131.764,144.901 131.793,144.951 132.054 M151.399 137.600 C 151.585 137.930,152.219 138.920,152.808 139.800 C 154.497 142.320,155.997 145.165,156.032 145.914 C 156.054 146.392,156.128 146.436,156.278 146.061 C 156.519 145.455,156.024 144.364,154.112 141.292 C 153.390 140.133,152.800 139.036,152.800 138.854 C 152.800 138.673,152.409 138.181,151.931 137.762 C 151.380 137.279,151.186 137.220,151.399 137.600 M108.268 139.100 C 107.220 140.848,106.389 142.523,106.509 142.643 C 106.591 142.724,107.081 142.028,107.599 141.096 C 108.117 140.163,108.734 139.268,108.970 139.106 C 109.265 138.905,109.250 138.810,108.924 138.806 C 108.662 138.803,108.366 138.935,108.268 139.100 M105.700 144.285 C 105.425 144.876,105.200 145.673,105.200 146.056 C 105.200 146.439,105.020 146.864,104.800 147.000 C 104.580 147.136,104.421 147.912,104.446 148.724 L 104.492 150.200 104.824 148.800 C 105.007 148.030,105.283 146.860,105.438 146.200 C 105.593 145.540,105.890 144.888,106.099 144.752 C 106.308 144.616,106.416 144.213,106.339 143.857 C 106.237 143.384,106.066 143.498,105.700 144.285 M157.455 150.800 C 157.734 154.783,157.735 155.296,157.468 158.800 L 157.239 161.800 157.672 159.400 C 158.222 156.354,158.223 153.255,157.675 150.200 L 157.244 147.800 157.455 150.800 M238.300 153.227 C 235.387 156.166,234.105 157.799,236.100 156.030 C 236.595 155.591,237.848 154.488,238.885 153.579 C 239.921 152.670,240.878 151.583,241.012 151.163 C 241.267 150.357,242.592 150.114,242.937 150.810 C 243.049 151.036,243.094 150.990,243.039 150.710 C 242.786 149.436,241.246 150.254,238.300 153.227 M103.843 151.833 C 103.495 152.738,103.542 157.917,103.900 158.138 C 104.065 158.240,104.200 156.721,104.200 154.762 C 104.200 150.900,104.200 150.901,103.843 151.833 M243.824 152.587 C 244.251 152.910,244.729 153.180,244.886 153.187 C 245.296 153.205,250.258 158.196,250.519 158.852 C 250.700 159.307,250.742 159.305,250.768 158.838 C 250.810 158.104,246.137 153.337,244.639 152.584 C 243.155 151.838,242.835 151.839,243.824 152.587 M231.659 160.026 C 230.481 161.332,229.664 162.400,229.844 162.400 C 230.364 162.400,233.600 159.083,233.600 158.550 C 233.600 158.284,233.825 157.976,234.100 157.865 C 234.375 157.754,234.420 157.660,234.200 157.657 C 233.980 157.654,232.836 158.720,231.659 160.026 M104.464 160.900 C 104.429 161.945,104.580 162.800,104.800 162.800 C 105.020 162.800,105.200 163.329,105.200 163.976 C 105.200 164.623,105.380 165.264,105.600 165.400 C 105.820 165.536,106.000 165.975,106.000 166.375 C 106.000 166.775,106.315 167.349,106.700 167.651 C 107.307 168.127,107.343 168.121,106.972 167.600 C 106.737 167.270,106.311 166.190,106.026 165.200 C 105.742 164.210,105.355 163.040,105.167 162.600 C 104.978 162.160,104.758 161.170,104.676 160.400 C 104.554 159.250,104.517 159.339,104.464 160.900 M251.609 160.211 C 251.878 160.535,252.346 160.800,252.649 160.800 C 252.952 160.800,253.200 160.961,253.200 161.157 C 253.200 161.354,253.495 161.628,253.857 161.766 C 254.977 162.196,253.693 160.905,252.318 160.219 C 251.274 159.698,251.183 159.697,251.609 160.211 M255.600 163.600 C 256.307 164.260,256.989 164.800,257.117 164.800 C 257.245 164.800,256.832 164.260,256.200 163.600 C 255.568 162.940,254.885 162.400,254.683 162.400 C 254.481 162.400,254.893 162.940,255.600 163.600 M227.398 164.002 C 226.358 165.151,226.820 165.280,227.914 164.146 C 228.417 163.626,228.670 163.200,228.476 163.200 C 228.282 163.200,227.797 163.561,227.398 164.002 M155.876 164.600 C 155.715 165.040,155.144 166.165,154.607 167.100 C 154.071 168.035,153.783 168.800,153.967 168.800 C 154.152 168.800,154.533 168.245,154.814 167.566 C 155.095 166.887,155.580 166.077,155.892 165.765 C 156.203 165.454,156.393 164.884,156.313 164.499 C 156.184 163.880,156.134 163.891,155.876 164.600 M257.500 165.465 C 257.775 165.576,258.000 165.900,258.000 166.184 C 258.000 166.469,258.265 166.922,258.589 167.191 C 259.089 167.606,259.084 167.491,258.560 166.440 C 258.220 165.758,257.730 165.214,257.471 165.232 C 257.141 165.254,257.150 165.323,257.500 165.465 M223.791 168.009 C 222.712 169.104,222.011 170.000,222.232 170.000 C 222.752 170.000,226.213 166.480,225.951 166.218 C 225.841 166.108,224.869 166.914,223.791 168.009 M260.886 168.946 C 261.389 169.467,261.874 169.828,261.964 169.749 C 262.197 169.545,260.748 168.000,260.324 168.000 C 260.130 168.000,260.383 168.426,260.886 168.946 M107.205 168.514 C 107.196 169.105,108.542 170.999,109.971 172.407 C 110.757 173.181,111.760 174.278,112.200 174.845 C 112.640 175.413,113.540 176.219,114.200 176.635 C 114.860 177.052,115.749 177.710,116.175 178.097 C 116.602 178.484,117.223 178.800,117.555 178.800 C 117.887 178.800,117.030 178.066,115.650 177.170 C 114.270 176.273,112.579 174.743,111.893 173.770 C 111.207 172.796,110.432 172.000,110.170 172.000 C 109.909 172.000,109.135 171.145,108.452 170.100 C 107.769 169.055,107.207 168.341,107.205 168.514 M152.899 169.991 C 152.212 171.090,152.274 171.383,153.032 170.625 C 153.380 170.277,153.604 169.813,153.531 169.592 C 153.457 169.372,153.173 169.551,152.899 169.991 M263.686 171.746 C 264.189 172.267,264.674 172.628,264.764 172.549 C 264.997 172.345,263.548 170.800,263.124 170.800 C 262.930 170.800,263.183 171.226,263.686 171.746 M150.791 172.483 C 149.887 173.609,148.692 175.937,149.499 175.000 C 150.503 173.835,152.061 171.528,151.931 171.398 C 151.849 171.316,151.336 171.804,150.791 172.483 M216.100 175.513 C 213.816 177.809,212.856 179.021,214.100 178.036 C 217.028 175.719,219.258 173.327,218.732 173.066 C 218.660 173.030,217.475 174.131,216.100 175.513 M265.613 173.914 C 265.636 174.447,266.748 175.684,267.075 175.542 C 267.254 175.464,266.995 175.001,266.500 174.514 C 266.005 174.027,265.606 173.757,265.613 173.914 M269.286 177.346 C 269.789 177.867,270.274 178.228,270.364 178.149 C 270.597 177.945,269.148 176.400,268.724 176.400 C 268.530 176.400,268.783 176.826,269.286 177.346 M145.266 177.393 C 143.961 178.112,143.303 178.800,143.920 178.800 C 144.184 178.800,144.400 178.620,144.400 178.400 C 144.400 178.180,144.741 178.000,145.157 178.000 C 145.574 178.000,146.018 177.730,146.145 177.400 C 146.271 177.070,146.336 176.818,146.287 176.839 C 146.239 176.861,145.780 177.110,145.266 177.393 M209.673 182.004 C 208.284 183.542,207.287 184.800,207.458 184.800 C 207.912 184.800,211.200 181.503,211.200 181.048 C 211.200 180.836,211.498 180.334,211.862 179.931 C 212.226 179.529,212.451 179.202,212.362 179.204 C 212.273 179.206,211.063 180.466,209.673 182.004 M272.086 180.146 C 272.589 180.667,273.074 181.028,273.164 180.949 C 273.397 180.745,271.948 179.200,271.524 179.200 C 271.330 179.200,271.583 179.626,272.086 180.146 M120.946 180.202 C 121.576 180.531,122.566 180.775,123.146 180.746 L 124.200 180.691 123.200 180.512 C 122.650 180.413,122.029 180.168,121.820 179.966 C 121.611 179.765,121.071 179.601,120.620 179.602 C 119.937 179.605,119.992 179.705,120.946 180.202 M139.380 179.966 C 139.171 180.168,138.550 180.413,138.000 180.512 L 137.000 180.691 138.054 180.746 C 138.634 180.775,139.714 180.537,140.454 180.216 C 141.710 179.670,141.732 179.630,140.780 179.616 C 140.219 179.607,139.589 179.765,139.380 179.966 M124.400 181.200 C 124.400 181.420,124.895 181.587,125.500 181.572 C 126.475 181.547,126.509 181.505,125.800 181.200 C 124.707 180.731,124.400 180.731,124.400 181.200 M127.462 182.100 C 127.564 182.265,129.066 182.400,130.800 182.400 C 132.534 182.400,134.036 182.265,134.138 182.100 C 134.240 181.935,132.738 181.800,130.800 181.800 C 128.862 181.800,127.360 181.935,127.462 182.100 M273.873 182.646 C 273.990 182.951,274.411 183.200,274.809 183.200 C 275.208 183.200,275.624 183.425,275.735 183.700 C 275.877 184.050,275.946 184.059,275.968 183.729 C 275.986 183.470,275.474 182.996,274.830 182.675 C 273.857 182.190,273.696 182.185,273.873 182.646 M205.862 185.531 C 205.498 185.934,205.200 186.411,205.200 186.593 C 205.200 186.774,205.560 186.507,206.000 186.000 C 206.440 185.493,206.800 185.015,206.800 184.939 C 206.800 184.639,206.495 184.832,205.862 185.531 M277.686 185.746 C 278.189 186.267,278.674 186.628,278.764 186.549 C 278.997 186.345,277.548 184.800,277.124 184.800 C 276.930 184.800,277.183 185.226,277.686 185.746 M279.900 187.865 C 280.175 187.976,280.400 188.300,280.400 188.584 C 280.400 188.869,280.665 189.322,280.989 189.591 C 281.489 190.006,281.484 189.891,280.960 188.840 C 280.620 188.158,280.130 187.614,279.871 187.632 C 279.541 187.654,279.550 187.723,279.900 187.865 M201.391 190.409 C 200.312 191.504,199.611 192.400,199.832 192.400 C 200.352 192.400,203.813 188.880,203.551 188.618 C 203.441 188.508,202.469 189.314,201.391 190.409 M283.286 191.346 C 283.789 191.867,284.274 192.228,284.364 192.149 C 284.597 191.945,283.148 190.400,282.724 190.400 C 282.530 190.400,282.783 190.826,283.286 191.346 M286.086 194.146 C 286.589 194.667,287.074 195.028,287.164 194.949 C 287.397 194.745,285.948 193.200,285.524 193.200 C 285.330 193.200,285.583 193.626,286.086 194.146 M193.673 197.905 C 192.283 199.321,191.248 200.581,191.373 200.706 C 191.498 200.831,191.600 200.723,191.600 200.467 C 191.600 200.210,191.845 200.000,192.145 200.000 C 192.764 200.000,196.400 196.255,196.400 195.617 C 196.400 195.088,196.619 194.905,193.673 197.905 M287.865 195.879 C 288.213 196.858,289.229 198.000,289.751 198.000 C 289.986 198.000,289.778 197.720,289.289 197.377 C 288.800 197.035,288.400 196.505,288.400 196.201 C 288.400 195.896,288.222 195.537,288.005 195.403 C 287.769 195.257,287.713 195.450,287.865 195.879 M290.400 198.182 C 290.400 198.462,292.403 200.400,292.693 200.400 C 292.834 200.400,292.432 199.860,291.800 199.200 C 290.667 198.018,290.400 197.823,290.400 198.182 M145.700 201.065 C 144.985 201.868,144.414 202.812,144.432 203.163 C 144.458 203.704,144.496 203.709,144.681 203.200 C 145.891 199.862,148.811 199.254,151.197 201.843 C 152.131 202.856,152.829 203.508,152.748 203.291 C 151.475 199.892,147.782 198.725,145.700 201.065 M293.700 201.438 C 294.085 201.892,294.400 202.452,294.400 202.683 C 294.400 202.913,294.665 203.322,294.989 203.591 C 295.503 204.017,295.502 203.926,294.981 202.882 C 294.652 202.223,294.072 201.443,293.692 201.149 C 293.050 200.652,293.051 200.673,293.700 201.438 M186.738 205.027 C 185.280 206.442,184.266 207.600,184.484 207.600 C 185.008 207.600,189.846 202.913,189.588 202.655 C 189.478 202.544,188.195 203.612,186.738 205.027 M296.373 204.967 C 296.781 205.459,298.400 206.118,298.400 205.792 C 298.400 205.719,297.842 205.380,297.160 205.040 C 296.222 204.572,296.030 204.555,296.373 204.967 M141.361 206.200 C 140.948 206.750,140.369 207.200,140.074 207.200 C 139.428 207.200,137.200 209.357,137.200 209.983 C 137.200 210.228,137.759 209.792,138.441 209.014 C 139.124 208.236,139.904 207.600,140.175 207.600 C 140.446 207.600,141.149 207.060,141.737 206.400 C 142.325 205.740,142.650 205.200,142.459 205.200 C 142.268 205.200,141.774 205.650,141.361 206.200 M154.410 205.245 C 154.526 205.330,155.872 206.570,157.401 208.000 C 158.930 209.430,159.735 210.076,159.190 209.436 C 157.882 207.898,155.220 205.440,154.652 205.245 C 154.403 205.160,154.295 205.160,154.410 205.245 M299.111 207.023 L 300.000 207.645 300.098 239.523 L 300.195 271.400 300.300 239.634 C 300.411 205.882,300.437 206.400,298.649 206.400 C 298.414 206.400,298.622 206.680,299.111 207.023 M182.600 208.800 C 182.202 209.240,181.966 209.600,182.077 209.600 C 182.187 209.600,182.693 209.240,183.200 208.800 C 183.707 208.360,183.943 208.000,183.723 208.000 C 183.504 208.000,182.998 208.360,182.600 208.800 M179.390 212.410 C 178.089 213.725,177.206 214.800,177.426 214.800 C 177.947 214.800,182.216 210.482,181.954 210.220 C 181.844 210.111,180.690 211.096,179.390 212.410 M135.506 212.008 C 134.905 212.663,134.560 213.200,134.740 213.200 C 134.920 213.200,135.549 212.660,136.137 212.000 C 136.725 211.340,137.070 210.803,136.903 210.808 C 136.736 210.812,136.108 211.352,135.506 212.008 M164.059 214.800 C 166.307 217.000,168.202 218.800,168.269 218.800 C 168.517 218.800,166.944 217.076,164.861 215.065 C 163.685 213.929,162.225 212.505,161.618 211.900 C 161.010 211.295,160.391 210.800,160.242 210.800 C 160.093 210.800,161.811 212.600,164.059 214.800 M130.700 215.975 C 130.095 216.587,129.600 217.368,129.600 217.711 C 129.600 218.053,129.375 218.424,129.100 218.535 C 128.707 218.694,128.709 218.744,129.110 218.768 C 129.390 218.786,129.780 218.379,129.975 217.865 C 130.171 217.350,130.900 216.450,131.596 215.865 C 132.292 215.279,132.623 214.814,132.331 214.831 C 132.039 214.848,131.305 215.363,130.700 215.975 M173.177 218.490 C 172.174 219.614,171.057 220.533,170.694 220.533 C 170.332 220.533,170.128 220.683,170.241 220.867 C 170.791 221.756,172.516 220.387,175.241 216.900 C 176.330 215.506,174.761 216.715,173.177 218.490 M123.300 223.382 C 122.585 224.124,122.011 225.062,122.025 225.466 C 122.048 226.131,122.082 226.125,122.384 225.400 C 122.763 224.489,124.703 222.608,125.600 222.281 C 126.023 222.128,125.964 222.059,125.400 222.047 C 124.960 222.039,124.015 222.639,123.300 223.382 M118.400 229.133 C 118.400 229.390,118.104 229.600,117.743 229.600 C 117.031 229.600,114.800 231.730,114.800 232.410 C 114.800 232.640,115.359 232.192,116.041 231.414 C 116.724 230.636,117.524 230.000,117.818 230.000 C 118.437 230.000,118.993 229.260,118.640 228.907 C 118.508 228.775,118.400 228.877,118.400 229.133 M111.900 235.607 C 110.358 237.122,110.520 237.502,112.086 236.039 C 112.793 235.378,113.288 234.767,113.186 234.682 C 113.083 234.596,112.505 235.012,111.900 235.607 M108.300 238.394 C 107.695 239.029,107.200 239.788,107.200 240.080 C 107.200 240.371,106.750 240.948,106.200 241.361 C 105.650 241.774,105.200 242.268,105.200 242.459 C 105.200 242.650,105.740 242.325,106.400 241.737 C 107.060 241.149,107.600 240.446,107.600 240.175 C 107.600 239.904,108.236 239.124,109.014 238.441 C 109.792 237.759,110.197 237.209,109.914 237.219 C 109.631 237.230,108.905 237.758,108.300 238.394 M104.100 243.423 C 103.540 244.031,103.345 271.200,103.900 271.200 C 104.065 271.200,104.150 265.149,104.089 257.754 C 104.009 247.939,104.105 244.155,104.446 243.744 C 105.059 243.006,104.749 242.719,104.100 243.423 M153.532 271.500 C 180.445 271.557,224.365 271.557,251.132 271.500 C 277.899 271.443,255.880 271.397,202.200 271.397 C 148.520 271.397,126.619 271.443,153.532 271.500 M316.848 284.926 C 316.193 286.573,316.306 287.190,317.013 285.833 C 317.348 285.191,317.549 284.471,317.459 284.233 C 317.369 283.995,317.094 284.307,316.848 284.926 M68.027 287.076 C 68.012 287.778,68.180 288.464,68.400 288.600 C 68.620 288.736,68.800 289.356,68.800 289.978 C 68.800 290.600,69.069 291.624,69.398 292.254 C 69.931 293.277,69.995 293.306,69.998 292.524 C 69.999 292.042,69.820 291.536,69.600 291.400 C 69.380 291.264,69.197 290.758,69.194 290.276 C 69.183 288.634,68.059 285.553,68.027 287.076 M89.424 288.187 C 90.600 289.077,313.447 289.103,314.624 288.213 C 315.303 287.699,315.315 287.624,314.724 287.613 C 314.352 287.606,313.936 287.780,313.800 288.000 C 313.457 288.555,90.000 288.555,90.000 288.000 C 90.000 287.780,89.696 287.600,89.324 287.600 C 88.734 287.600,88.746 287.675,89.424 288.187 M333.645 292.600 C 333.619 293.040,333.238 293.989,332.799 294.710 C 331.890 296.200,331.766 296.704,332.500 295.929 C 333.403 294.974,334.082 293.319,333.886 292.553 C 333.706 291.853,333.689 291.856,333.645 292.600 M70.824 295.451 C 70.811 295.698,71.475 296.623,72.300 297.505 C 73.125 298.387,74.201 299.614,74.691 300.230 C 75.181 300.847,75.667 301.267,75.770 301.163 C 75.874 301.060,75.023 299.951,73.879 298.699 C 72.736 297.448,71.586 296.103,71.324 295.712 C 71.061 295.320,70.836 295.203,70.824 295.451 M330.456 298.199 C 329.754 298.969,329.300 299.600,329.447 299.600 C 329.834 299.600,332.100 297.167,331.900 296.966 C 331.807 296.874,331.157 297.428,330.456 298.199 M328.474 300.911 C 328.232 301.203,327.220 301.848,326.226 302.344 C 324.419 303.247,323.578 304.000,324.376 304.000 C 324.609 304.000,324.800 303.820,324.800 303.600 C 324.800 303.380,325.160 303.200,325.600 303.200 C 326.040 303.200,326.400 303.020,326.400 302.800 C 326.400 302.580,326.642 302.400,326.939 302.400 C 327.587 302.400,329.415 300.882,329.121 300.588 C 329.007 300.474,328.716 300.619,328.474 300.911 M76.400 301.803 C 76.400 302.113,79.226 304.107,79.408 303.925 C 79.511 303.823,78.876 303.268,77.997 302.693 C 77.119 302.118,76.400 301.717,76.400 301.803 M81.149 304.536 C 81.451 304.901,82.025 305.200,82.425 305.200 C 82.825 305.200,83.264 305.380,83.400 305.600 C 83.536 305.820,84.346 306.000,85.200 306.000 C 86.054 306.000,86.864 306.180,87.000 306.400 C 87.293 306.873,316.800 306.973,316.800 306.500 C 316.800 306.335,265.365 306.200,202.500 306.200 C 82.272 306.200,85.148 306.245,81.400 304.289 C 80.685 303.916,80.658 303.942,81.149 304.536 M322.400 304.377 C 320.985 305.156,319.710 305.585,318.400 305.724 C 317.250 305.846,317.339 305.883,318.900 305.936 C 319.945 305.971,320.800 305.820,320.800 305.600 C 320.800 305.380,321.228 305.200,321.751 305.200 C 322.274 305.200,322.926 304.930,323.200 304.600 C 323.738 303.952,323.363 303.847,322.400 304.377 " stroke="none" fill="#dce3e4" fill-rule="evenodd"></path></g></svg>